<svg width="24" height="24" viewBox="0 0 24 24" xmlns="http://www.w3.org/2000/svg" xmlns:xlink="http://www.w3.org/1999/xlink" overflow="hidden"><path d="M20 3 4 3C3.447 3 3 3.448 3 4L3 20C3 20.552 3.447 21 4 21L12.615 21 12.615 14.04 10.277 14.04 10.277 11.315 12.615 11.315 12.615 9.315C12.615 6.99 14.035 5.723 16.115 5.723 16.814 5.721 17.514 5.757 18.21 5.83L18.21 8.25 16.775 8.25C15.647 8.25 15.427 8.788 15.427 9.575L15.427 11.31 18.124 11.31 17.774 14.035 15.426 14.035 15.426 21 20 21C20.553 21 21 20.552 21 20L21 4C21 3.448 20.553 3 20 3Z" stroke="none" stroke-width="1" stroke-linecap="butt" fill="#3B5998" fill-opacity="1"/></svg>