<svg width="48" height="48" viewBox="0 0 48 48" xmlns="http://www.w3.org/2000/svg" xmlns:xlink="http://www.w3.org/1999/xlink" overflow="hidden"><g fill="none" fill-rule="evenodd"><rect x="0" y="0" width="48" height="48"/><path d="M17.8506 32.3367 15.0376 35.1499C18.9205 38.5056 24.3301 39.143 28.7954 37.0737L28.7954 37.0737 31.2426 42.2352C24.6509 45.3175 16.6134 44.3143 10.9759 39.2115L10.9759 39.2115 8.06244 42.1249 8.06244 32.3367 17.8506 32.3367ZM42.2371 16.7364C45.3176 23.3264 44.3144 31.3638 39.2112 37.001L39.2112 37.001 42.1246 39.9144 32.3364 39.9144 32.3364 30.1262 35.1495 32.9394C38.5053 29.056 39.1408 23.6487 37.0734 19.1814L37.0734 19.1814ZM15.6409 8.06237 15.6409 17.8506 12.8278 15.0375C9.47203 18.9205 8.83464 24.33 10.9039 28.7955L10.9039 28.7955 5.74205 31.2427C2.66157 24.6526 3.66482 16.6152 8.76533 10.9754L8.76533 10.9754 5.8523 8.06237 15.6409 8.06237ZM16.7346 5.74205C23.3246 2.66157 31.362 3.66482 37.0018 8.76526L37.0018 8.76526 39.9149 5.85223 39.9149 15.6405 30.1263 15.6405 32.9394 12.8274C29.0564 9.47163 23.6488 8.83615 19.1815 10.9036L19.1815 10.9036Z" fill="#5B5B5B" fill-rule="nonzero"/></g></svg>