<svg width="48" height="48" viewBox="0 0 48 48" xmlns="http://www.w3.org/2000/svg" xmlns:xlink="http://www.w3.org/1999/xlink" overflow="hidden"><g fill="none" fill-rule="evenodd"><rect x="0" y="0" width="48" height="48"/><path d="M13.9115 13.3279C14.3084 12.9312 14.9035 12.8086 15.4247 13.0167L15.4247 13.0167 42.0115 23.6211C42.5112 23.8203 42.8531 24.2876 42.8919 24.8243 42.9306 25.3608 42.6596 25.8722 42.1937 26.1412L42.1937 26.1412 36.2314 29.5847 44.5886 37.9413C45.1371 38.4897 45.1371 39.3787 44.5888 39.9271L44.5888 39.9271 40.5108 44.0052C40.2475 44.2686 39.8903 44.4167 39.5177 44.4167 39.1454 44.4167 38.788 44.2686 38.5247 44.0052L38.5247 44.0052 30.1681 35.6487 26.7245 41.6103C26.4556 42.0763 25.944 42.3474 25.4073 42.3084 24.8705 42.2697 24.4032 41.9277 24.2038 41.428L24.2038 41.428 13.6 14.841C13.392 14.3198 13.5146 13.7249 13.9115 13.3279ZM27.392 21.36C27.152 21.36 26.952 21.438 26.792 21.594 26.6587 21.724 26.5809 21.8832 26.5587 22.0715L26.552 22.188 26.552 22.788C25.816 22.94 25.224 23.252 24.776 23.724 24.328 24.196 24.104 24.752 24.104 25.392 24.104 25.952 24.244 26.398 24.524 26.73 24.804 27.062 25.136 27.306 25.52 27.462 25.904 27.618 26.396 27.772 26.996 27.924 27.372 28.02 27.658 28.1 27.854 28.164 28.05 28.228 28.214 28.314 28.346 28.422 28.478 28.53 28.544 28.668 28.544 28.836 28.544 29.116 28.434 29.326 28.214 29.466 27.994 29.606 27.672 29.676 27.248 29.676 26.904 29.676 26.58 29.636 26.276 29.556 25.972 29.476 25.644 29.34 25.292 29.148 25.14 29.06 25.016 29 24.92 28.968 24.824 28.936 24.728 28.92 24.632 28.92 24.44 28.92 24.274 29.008 24.134 29.184 23.994 29.36 23.924 29.568 23.924 29.808 23.924 29.992 23.954 30.14 24.014 30.252 24.074 30.364 24.176 30.464 24.32 30.552 24.873 30.909 25.524 31.1527 26.273 31.2831L26.6 31.332 26.6 31.872C26.6 32.12 26.678 32.32 26.834 32.472 26.99 32.624 27.192 32.7 27.44 32.7 27.688 32.7 27.89 32.624 28.046 32.472 28.176 32.3453 28.2518 32.1853 28.2735 31.992L28.28 31.872 28.28 31.284C29.032 31.14 29.63 30.84 30.074 30.384 30.518 29.928 30.74 29.376 30.74 28.728 30.74 28.16 30.602 27.708 30.326 27.372 30.05 27.036 29.722 26.792 29.342 26.64 28.962 26.488 28.476 26.344 27.884 26.208 27.332 26.08 26.928 25.952 26.672 25.824 26.416 25.696 26.288 25.504 26.288 25.248 26.288 24.984 26.4 24.774 26.624 24.618 26.848 24.462 27.14 24.384 27.5 24.384 27.748 24.384 27.982 24.414 28.202 24.474 28.422 24.534 28.628 24.614 28.82 24.714 29.012 24.814 29.136 24.88 29.192 24.912 29.36 25 29.488 25.06 29.576 25.092 29.664 25.124 29.756 25.14 29.852 25.14 30.044 25.14 30.212 25.052 30.356 24.876 30.5 24.7 30.572 24.492 30.572 24.252 30.572 24.084 30.542 23.942 30.482 23.826 30.422 23.71 30.32 23.604 30.176 23.508 29.6343 23.1651 29.0808 22.931 28.5156 22.8056L28.232 22.752 28.232 22.188C28.232 21.94 28.154 21.74 27.998 21.588 27.842 21.436 27.64 21.36 27.392 21.36ZM9.97491 20.9044C10.5148 20.3651 11.3892 20.3653 11.9286 20.9044 12.4682 21.444 12.4682 22.3189 11.9286 22.8585L11.9286 22.8585 8.85846 25.9287C8.58873 26.1984 8.23499 26.3333 7.88152 26.3333 7.52806 26.3333 7.17445 26.1984 6.90459 25.9287 6.36514 25.3892 6.36514 24.5143 6.90459 23.9747L6.90459 23.9747ZM8.63868 14.6667C9.39054 14.6667 10 15.3197 10 16.1249 10 16.9303 9.39054 17.5832 8.63868 17.5833L8.63868 17.5833 4.36132 17.5833C3.60946 17.5833 3 16.9303 3 16.1249 3 15.3196 3.6096 14.6667 4.36132 14.6667L4.36132 14.6667ZM7.48795 6.32112C8.02785 5.78178 8.90247 5.78192 9.4421 6.32112L9.4421 6.32112 12.5119 9.39134C13.0516 9.93096 13.0516 10.8057 12.5119 11.3453 12.2422 11.6151 11.8886 11.75 11.5351 11.75 11.1813 11.75 10.8278 11.6151 10.5581 11.3453L10.5581 11.3453 7.48795 8.27524C6.94846 7.73562 6.94846 6.86074 7.48795 6.32112ZM24.558 5.73784C25.0975 5.1985 25.9723 5.1985 26.512 5.73784 27.0516 6.27745 27.0516 7.15232 26.512 7.69194L26.512 7.69194 23.442 10.762C23.1723 11.0317 22.8188 11.1667 22.465 11.1667 22.1114 11.1667 21.7579 11.0317 21.488 10.762 20.9484 10.2225 20.9484 9.34764 21.488 8.80803L21.488 8.80803ZM17.2916 3C18.0971 3 18.75 3.60944 18.75 4.36113L18.75 4.36113 18.75 8.63873C18.75 9.39056 18.0969 10 17.2916 10 16.4863 10 15.8333 9.39056 15.8333 8.63887L15.8333 8.63887 15.8333 4.36113C15.8333 3.6093 16.4864 3 17.2916 3Z" fill="#5B5B5B"/></g></svg>