<svg width="48" height="48" viewBox="0 0 48 48" xmlns="http://www.w3.org/2000/svg" xmlns:xlink="http://www.w3.org/1999/xlink" overflow="hidden"><g fill="none" fill-rule="evenodd"><rect x="0" y="0" width="48" height="48"/><path d="M33.364 2.19388C35.044 2.19388 36.4166 3.51474 36.5093 5.17579L36.5143 5.35502 36.5143 42.4316C36.5143 44.1142 35.1996 45.4916 33.5428 45.5846L33.364 45.5896 15.1503 45.5896C13.4672 45.5896 12.0974 44.2702 12.005 42.6107L12 42.4316 12 5.35502C12 3.67092 13.3118 2.29198 14.9712 2.19888L15.1503 2.19388 33.364 2.19388ZM24.2587 38.4371C23.1497 38.4371 22.2474 39.3385 22.2474 40.4518 22.2474 41.5651 23.1497 42.4696 24.2587 42.4696 25.3645 42.4696 26.2669 41.5651 26.2669 40.4518 26.2669 39.3385 25.3645 38.4371 24.2587 38.4371ZM34.1544 7.52781 14.3615 7.52781 14.3615 35.5606 34.1544 35.5606 34.1544 7.52781ZM30.7052 26.6202C30.8673 26.6202 30.9993 26.6703 31.1013 26.7705 31.2033 26.8707 31.2543 27.0025 31.2543 27.166L31.2543 27.5378C31.6884 27.6064 32.112 27.7725 32.5251 28.0361 32.6192 28.0994 32.6859 28.1693 32.7251 28.2458 32.7644 28.3222 32.784 28.4158 32.784 28.5266 32.784 28.6848 32.7369 28.8219 32.6428 28.9379 32.5486 29.0539 32.4388 29.1119 32.3133 29.1119 32.2505 29.1119 32.1904 29.1014 32.1329 29.0803 32.0753 29.0592 31.9917 29.0196 31.8818 28.9616 31.8452 28.9405 31.7642 28.897 31.6387 28.8311 31.5132 28.7652 31.3785 28.7125 31.2347 28.6729 31.0909 28.6333 30.9379 28.6136 30.7758 28.6136 30.5404 28.6136 30.3495 28.665 30.2031 28.7678 30.0567 28.8707 29.9835 29.0091 29.9835 29.1831 29.9835 29.3519 30.0671 29.4784 30.2345 29.5628 30.4018 29.6472 30.6659 29.7315 31.0268 29.8159 31.4138 29.9056 31.7315 30.0005 31.9799 30.1007 32.2283 30.2009 32.4427 30.3617 32.6232 30.5832 32.8036 30.8047 32.8938 31.1026 32.8938 31.477 32.8938 31.9042 32.7487 32.268 32.4584 32.5686 32.1682 32.8692 31.7773 33.067 31.2857 33.1619L31.2857 33.5495C31.2857 33.713 31.2347 33.8448 31.1327 33.945 31.0307 34.0452 30.8987 34.0953 30.7365 34.0953 30.5744 34.0953 30.4424 34.0452 30.3404 33.945 30.2384 33.8448 30.1874 33.713 30.1874 33.5495L30.1874 33.1935C29.6069 33.1197 29.1101 32.9483 28.697 32.6794 28.6028 32.6214 28.5361 32.5554 28.4969 32.4816 28.4577 32.4078 28.4381 32.3102 28.4381 32.1889 28.4381 32.0307 28.4838 31.8936 28.5754 31.7776 28.6669 31.6616 28.7754 31.6036 28.9009 31.6036 28.9637 31.6036 29.0264 31.6141 29.0892 31.6352 29.1519 31.6563 29.233 31.6959 29.3324 31.7539 29.5625 31.8804 29.7769 31.9701 29.9756 32.0228 30.1743 32.0756 30.3861 32.1019 30.611 32.1019 30.8882 32.1019 31.0987 32.0558 31.2425 31.9635 31.3863 31.8712 31.4582 31.7328 31.4582 31.5482 31.4582 31.4375 31.4151 31.3465 31.3288 31.2753 31.2425 31.2041 31.1353 31.1474 31.0072 31.1053 30.879 31.0631 30.6921 31.0103 30.4463 30.9471 30.0541 30.8469 29.7324 30.7453 29.4814 30.6425 29.2304 30.5397 29.0134 30.3788 28.8303 30.16 28.6473 29.9412 28.5557 29.6472 28.5557 29.278 28.5557 28.8561 28.7022 28.4896 28.995 28.1785 29.2879 27.8674 29.6749 27.6617 30.156 27.5615L30.156 27.166C30.156 27.0078 30.2083 26.8773 30.3129 26.7745 30.4175 26.6716 30.5483 26.6202 30.7052 26.6202ZM26.8813 13.8652C27.0392 13.8652 27.1711 13.9782 27.2016 14.1284L27.2082 14.1948 27.2082 22.4344 30.7899 22.4344C30.9219 22.4344 31.0409 22.5149 31.0919 22.6381 31.1327 22.7368 31.1229 22.8472 31.0694 22.9357L31.0213 22.9974 24.4815 29.5945C24.4201 29.6558 24.3371 29.6907 24.2501 29.6907 24.1849 29.6907 24.1219 29.6711 24.0686 29.6351L24.0187 29.5938 17.4979 22.9968C17.4044 22.9025 17.377 22.7608 17.4273 22.6375 17.4681 22.5394 17.5524 22.4683 17.6521 22.4438L17.7293 22.4345 21.3247 22.4345 21.3247 14.1948C21.3247 14.0356 21.4369 13.9026 21.5858 13.8719L21.6516 13.8652 26.8813 13.8652ZM28.7546 4.11365 19.7629 4.11365C19.5341 4.11365 19.3527 4.45364 19.3527 4.87429 19.3527 5.25286 19.4997 5.5674 19.6958 5.62652L19.7629 5.6365 28.7546 5.6365C28.9817 5.6365 29.1663 5.29493 29.1663 4.87429 29.1663 4.45364 28.9817 4.11365 28.7546 4.11365Z" fill="#5B5B5B" fill-rule="nonzero"/></g></svg>