<svg width="48" height="48" viewBox="0 0 48 48" xmlns="http://www.w3.org/2000/svg" xmlns:xlink="http://www.w3.org/1999/xlink" overflow="hidden"><g fill="none" fill-rule="evenodd"><rect x="0" y="0" width="48" height="48"/><path d="M27.0618 25.6994C31.6178 25.6994 35.3242 29.3493 35.3226 33.835L35.3226 33.835 35.3226 40.4292 35.2765 40.4292 34.8454 40.6438C34.6285 40.7525 31.1087 42.4571 25.0362 42.4571 21.9271 42.4571 18.1498 42.0111 13.802 40.6736L13.802 40.6736 13.3407 40.5314 13.3237 40.4281 13.3237 33.835C13.3237 29.3493 17.0302 25.6994 21.5861 25.6994L21.5861 25.6994ZM37.7381 19.1403C42.2935 19.1403 46 22.7897 46 27.2748L46 27.2748 46 33.8701 45.9539 33.8701 45.5228 34.0853C45.3191 34.1859 42.2276 35.6829 36.8628 35.8764L36.8628 35.8764 36.8628 33.8447C36.8628 29.4774 33.8999 25.7799 29.8502 24.5943 31.318 23.2081 32.2459 21.2807 32.3047 19.1403L32.3047 19.1403ZM15.7376 19.1403C15.9429 19.1403 16.1423 19.156 16.3438 19.1706 16.4113 21.298 17.336 23.2151 18.7967 24.5943 14.7459 25.781 11.784 29.4774 11.7829 33.8447L11.7829 33.8447 11.7829 35.8359C9.0791 35.6802 5.96621 35.186 2.47827 34.1139L2.47827 34.1139 2.01702 33.9707 2 33.869 2 27.2748C2 22.7897 5.70648 19.1403 10.2624 19.1403L10.2624 19.1403ZM24.3245 12.5596C27.8882 12.5596 30.7776 15.4039 30.7776 18.9127 30.7776 22.4215 27.8888 25.2663 24.3245 25.2663 20.7608 25.2663 17.8703 22.422 17.8703 18.9132 17.8703 15.4045 20.7608 12.5596 24.3245 12.5596ZM13.0014 6.00162C16.564 6.00162 19.4534 8.84594 19.4534 12.3553 19.4534 12.4753 19.4419 12.5931 19.4353 12.7121 17.8555 13.921 16.7496 15.6959 16.4333 17.7271 15.4383 18.345 14.2638 18.7078 13.0014 18.7078 9.43657 18.7078 6.54826 15.8629 6.54826 12.3553 6.54826 8.84594 9.43657 6.00162 13.0014 6.00162ZM34.9997 6C38.564 6 41.4528 8.84432 41.4528 12.3536 41.4528 15.8624 38.564 18.7067 34.9997 18.7067 34.0234 18.7067 33.1026 18.4872 32.2729 18.1055 32.0131 15.6386 30.5865 13.5133 28.5521 12.2574 28.6059 8.79458 31.4695 6.00108 34.9997 6Z" fill="#5B5B5B" fill-rule="nonzero"/></g></svg>