<svg width="48" height="48" viewBox="0 0 48 48" xmlns="http://www.w3.org/2000/svg" xmlns:xlink="http://www.w3.org/1999/xlink" overflow="hidden"><g fill="none" fill-rule="evenodd"><rect x="0" y="0" width="48" height="48"/><path d="M33.364 2.19388C35.104 2.19388 36.5143 3.61078 36.5143 5.35502L36.5143 5.35502 36.5143 42.4316C36.5143 44.1743 35.104 45.5896 33.364 45.5896L33.364 45.5896 15.1503 45.5896C13.4071 45.5896 12 44.1743 12 42.4316L12 42.4316 12 5.35502C12 3.61078 13.4071 2.19388 15.1503 2.19388L15.1503 2.19388ZM24.2587 38.4371C23.1497 38.4371 22.2474 39.3385 22.2474 40.4518 22.2474 41.5651 23.1497 42.4696 24.2587 42.4696 25.3645 42.4696 26.2669 41.5651 26.2669 40.4518 26.2669 39.3385 25.3645 38.4371 24.2587 38.4371ZM34.1544 7.52781 14.3615 7.52781 14.3615 35.5606 34.1544 35.5606 34.1544 7.52781ZM26.8813 13.8652C27.0618 13.8652 27.2082 14.0128 27.2082 14.1948L27.2082 14.1948 27.2082 22.4344 30.7899 22.4344C30.9219 22.4344 31.0409 22.5149 31.0919 22.6381 31.1429 22.7614 31.1148 22.9031 31.0213 22.9974L31.0213 22.9974 24.4815 29.5945C24.4201 29.6558 24.3371 29.6907 24.2501 29.6907 24.1632 29.6907 24.0802 29.6558 24.0187 29.5938L24.0187 29.5938 17.4979 22.9968C17.4044 22.9025 17.377 22.7608 17.4273 22.6375 17.4783 22.5149 17.5973 22.4345 17.7293 22.4345L17.7293 22.4345 21.3247 22.4345 21.3247 14.1948C21.3247 14.0128 21.4712 13.8652 21.6516 13.8652L21.6516 13.8652ZM28.7546 4.11365 19.7629 4.11365C19.5341 4.11365 19.3527 4.45364 19.3527 4.87429 19.3527 5.29493 19.5341 5.6365 19.7629 5.6365L19.7629 5.6365 28.7546 5.6365C28.9817 5.6365 29.1663 5.29493 29.1663 4.87429 29.1663 4.45364 28.9817 4.11365 28.7546 4.11365L28.7546 4.11365Z" fill="#5B5B5B" fill-rule="nonzero"/></g></svg>