<svg width="48" height="48" viewBox="0 0 48 48" xmlns="http://www.w3.org/2000/svg" xmlns:xlink="http://www.w3.org/1999/xlink" overflow="hidden"><g fill="none" fill-rule="evenodd"><rect x="0" y="0" width="48" height="48"/><path d="M16.2382 3.53257C17.8253 1.78687 20.6527 4.91873 23.2487 4.60495 25.079 4.33337 28.8658 2.79195 30.6096 3.14348 31.922 3.40794 29.7894 9.45454 26.5978 12.1385 38.6283 17.0967 56.1976 47.4108 21.1107 44.8463-4.24725 42.993 10.2882 17.4505 20.6296 12.3625 17.1633 10.1137 14.9478 4.95193 16.2382 3.53257ZM23.5968 20C23.2095 20 22.8867 20.1307 22.6285 20.3921 22.3703 20.6534 22.2412 20.9852 22.2412 21.3873L22.2412 21.3873 22.2412 22.3926C21.0534 22.6473 20.098 23.17 19.375 23.9608 18.652 24.7517 18.2905 25.6832 18.2905 26.7556 18.2905 27.6938 18.5164 28.4411 18.9683 28.9974 19.4202 29.5536 19.956 29.9624 20.5757 30.2238 21.1954 30.4852 21.9894 30.7432 22.9577 30.9979 23.5646 31.1587 24.0261 31.2928 24.3424 31.4 24.6587 31.5072 24.9234 31.6513 25.1364 31.8323 25.3495 32.0132 25.456 32.2444 25.456 32.5259 25.456 32.9951 25.2785 33.3469 24.9234 33.5815 24.5684 33.8161 24.0487 33.9333 23.3644 33.9333 22.8093 33.9333 22.2864 33.8663 21.7958 33.7323 21.3052 33.5982 20.7758 33.3704 20.2077 33.0487 19.9624 32.9012 19.7623 32.8007 19.6074 32.7471 19.4525 32.6935 19.2975 32.6667 19.1426 32.6667 18.8327 32.6667 18.5648 32.8141 18.3389 33.109 18.113 33.4039 18 33.7524 18 34.1545 18 34.4628 18.0484 34.7108 18.1452 34.8984 18.2421 35.0861 18.4067 35.2536 18.6391 35.4011 19.659 36.0847 20.8856 36.5203 22.3187 36.7079L22.3187 36.7079 22.3187 37.6127C22.3187 38.0282 22.4445 38.3633 22.6963 38.618 22.9481 38.8727 23.2741 39 23.6743 39 24.0745 39 24.4005 38.8727 24.6523 38.618 24.9041 38.3633 25.0299 38.0282 25.0299 37.6127L25.0299 37.6127 25.0299 36.6275C26.2436 36.3862 27.2086 35.8836 27.9252 35.1196 28.6417 34.3556 29 33.4307 29 32.345 29 31.3933 28.7773 30.636 28.3319 30.073 27.8864 29.51 27.3571 29.1012 26.7438 28.8466 26.1306 28.5919 25.3462 28.3506 24.3908 28.1228 23.5 27.9083 22.848 27.6938 22.4349 27.4794 22.0217 27.2649 21.8151 26.9432 21.8151 26.5143 21.8151 26.072 21.9959 25.7201 22.3574 25.4587 22.7189 25.1974 23.1901 25.0667 23.7711 25.0667 24.1714 25.0667 24.549 25.1169 24.904 25.2175 25.2591 25.318 25.5915 25.452 25.9014 25.6196 26.2113 25.7871 26.4114 25.8977 26.5018 25.9513 26.7729 26.0988 26.9795 26.1993 27.1215 26.2529 27.2635 26.3065 27.412 26.3333 27.5669 26.3333 27.8768 26.3333 28.1479 26.1859 28.3803 25.891 28.6127 25.5961 28.7289 25.2476 28.7289 24.8455 28.7289 24.564 28.6805 24.3261 28.5836 24.1317 28.4868 23.9374 28.3222 23.7598 28.0898 23.5989 27.0698 22.9287 26.0241 22.5065 24.9525 22.3323L24.9525 22.3323 24.9525 21.3873C24.9525 20.9718 24.8266 20.6367 24.5748 20.382 24.3231 20.1273 23.9971 20 23.5968 20Z" fill="#5B5B5B" fill-rule="nonzero"/></g></svg>